#!OML:ASF I:\Actors\actors\Patient Classification 2\Patient 1\Session 1\actor1.ASF
:FULLY-SPECIFIED
:DEGREES
201
root -0.424438 18.7854 5.27271 4.17774 1.22656 0.0326538
lowerback 13.0058 1.18062 9.69177
upperback 1.46981 3.26106 5.27585
thorax -5.5267 1.43498 -0.420512
lowerneck -9.9579 -5.59343 -1.7561
upperneck 12.8198 -6.3775 -6.58258
head 5.34283 -3.6612 -2.24356
rclavicle -2.42517e-014 -5.40694e-014
rhumerus 7.95102 5.37566 -51.4359
rradius 131.98
rwrist -36.4526
rhand -1.3321 -28.997
rfingers 7.12502
rthumb 24.3139 -57.4749
lclavicle -2.42517e-014 -5.40694e-014
lhumerus -47.816 -8.36427 94.3855
lradius 56.0798
lwrist 0.35309
lhand -9.90922 -26.486
lfingers 7.12502
lthumb 16.0711 2.86755
rfemur 0 0 0
rtibia 0
rfoot 0 0
rtoes 0
lfemur -10.9494 -1.19446 -14.8028
ltibia 22.4375
lfoot -17.8841 6.6948
ltoes -55.1155
202
root -0.416128 18.7823 5.27746 4.07515 0.958757 0.0691534
lowerback 12.9041 1.16614 9.73342
upperback 1.439 3.24059 5.34661
thorax -5.50681 1.42481 -0.362044
lowerneck -9.91214 -5.45818 -1.71936
upperneck 12.6809 -6.15385 -6.99348
head 5.28381 -3.57659 -2.35568
rclavicle 8.74653e-015 -5.725e-014
rhumerus 8.56092 6.01932 -51.8591
rradius 133.842
rwrist -35.2113
rhand -2.14886 -28.1215
rfingers 7.12502
rthumb 23.5306 -56.7022
lclavicle 8.74653e-015 -5.725e-014
lhumerus -47.6087 -8.55282 94.6249
lradius 56.012
lwrist 0.401166
lhand -9.81015 -26.5895
lfingers 7.12502
lthumb 16.1665 2.75636
rfemur 0 0 0
rtibia 0
rfoot 0 0
rtoes 0
lfemur -10.7437 -1.09692 -14.8869
ltibia 22.3916
lfoot -17.9691 6.81896
ltoes -55.0587
203
root -0.408429 18.7793 5.2817 3.96639 0.706922 0.0803124
lowerback 12.7695 1.13478 9.79797
upperback 1.43544 3.19345 5.42089
thorax -5.44016 1.40366 -0.306899
lowerneck -9.89174 -5.30469 -1.64016
upperneck 12.5066 -5.91043 -7.43327
head 5.21751 -3.48139 -2.48231
rclavicle -1.98785e-014 4.13472e-014
rhumerus 9.43501 6.70153 -52.1611
rradius 135.486
rwrist -34.2837
rhand -3.17565 -27.499
rfingers 7.12502
rthumb 22.5454 -56.2026
lclavicle -1.98785e-014 4.13472e-014
lhumerus -47.5146 -8.65495 94.7962
lradius 56.1177
lwrist 0.269396
lhand -9.99427 -26.8057
lfingers 7.12502
lthumb 15.9892 2.55446
rfemur 0 0 0
rtibia 0
rfoot 0 0
rtoes 0
lfemur -10.5411 -1.00595 -14.9377
ltibia 22.3667
lfoot -18.0598 6.89782
ltoes -54.9685
204
root -0.400501 18.7771 5.28549 3.88255 0.534597 0.0828042
lowerback 12.6068 1.12213 9.91173
upperback 1.39877 3.17551 5.46945
thorax -5.38705 1.39419 -0.310282
lowerneck -9.80166 -5.17849 -1.4745
upperneck 12.3157 -5.72399 -7.86382
head 5.13081 -3.40708 -2.62106
rclavicle -1.51076e-014 -2.8625e-014
rhumerus 10.2545 7.23687 -52.3168
rradius 137.082
rwrist -33.5972
rhand -4.30311 -27.2835
rfingers 7.12502
rthumb 21.4629 -56.1145
lclavicle -1.51076e-014 -2.8625e-014
lhumerus -47.4748 -8.86358 94.9901
lradius 56.1931
lwrist 0.0620869
lhand -10.4297 -27.0145
lfingers 7.12502
lthumb 15.5698 2.37881
rfemur 0 0 0
rtibia 0
rfoot 0 0
rtoes 0
lfemur -10.3932 -0.89361 -14.9718
ltibia 22.3605
lfoot -18.1516 6.91255
ltoes -54.9149
205
root -0.393257 18.7766 5.28835 3.82789 0.411379 0.0737861
lowerback 12.4488 1.12538 10.0044
upperback 1.30052 3.18431 5.53999
thorax -5.40318 1.39437 -0.283733
lowerneck -9.66367 -5.07724 -1.34285
upperneck 12.1942 -5.56676 -8.28064
head 5.05921 -3.34772 -2.75277
rclavicle -5.56597e-015 -4.45278e-014
rhumerus 10.8728 7.7426 -52.3727
rradius 138.653
rwrist -32.6583
rhand -5.39325 -26.8311
rfingers 7.12502
rthumb 20.4155 -55.7779
lclavicle -5.56597e-015 -4.45278e-014
lhumerus -47.4927 -9.0611 95.2232
lradius 56.2597
lwrist 0.00989968
lhand -10.649 -27.0836
lfingers 7.12502
lthumb 15.3586 2.32597
rfemur 0 0 0
rtibia 0
rfoot 0 0
rtoes 0
lfemur -10.3029 -0.731997 -14.9886
ltibia 22.3676
lfoot -18.1986 6.91019
ltoes -54.9538
206
root -0.386785 18.7753 5.29211 3.74721 0.279862 0.0797576
lowerback 12.3131 1.12984 10.054
upperback 1.19582 3.19176 5.59482
thorax -5.44007 1.39369 -0.250676
lowerneck -9.50075 -4.95704 -1.18115
upperneck 12.0263 -5.39928 -8.65008
head 4.9706 -3.27647 -2.87209
rclavicle -9.54166e-015 1.27222e-014
rhumerus 11.5493 8.44712 -52.5442
rradius 139.919
rwrist -31.1649
rhand -6.28725 -26.0466
rfingers 7.12502
rthumb 19.5562 -55.0831
lclavicle -9.54166e-015 1.27222e-014
lhumerus -47.5363 -9.14174 95.366
lradius 56.373
lwrist 0.00518419
lhand -10.5558 -26.9924
lfingers 7.12502
lthumb 15.4483 2.41028
rfemur 0 0 0
rtibia 0
rfoot 0 0
rtoes 0
lfemur -10.184 -0.612475 -15.021
ltibia 22.3796
lfoot -18.2488 6.91501
ltoes -54.9346
